<svg xmlns="http://www.w3.org/2000/svg" xml:space="preserve" fill-rule="evenodd" stroke-linejoin="round" stroke-miterlimit="2" clip-rule="evenodd" viewBox="0 0 1024 1024">
  <path fill="#fff" d="M320.3 558.1a5777 5777 0 0 0-37.5-57.4 15.4 15.4 0 0 1-3-12 6 6 0 0 1 3.1-4.1l.6-.4.8-.3.8-.2h1.6l1.3.5a14 14 0 0 1 4.2 3.5c3.7 4.1 8.3 11.7 13.3 19.2 2.8 4.2 14 21.1 29.8 45.4a3 3 0 0 1-1.8 4.5 197 197 0 0 0-9.9 2.6 3 3 0 0 1-3.3-1.3Zm54.1 83.5-18-28a3 3 0 0 1 .8-4l8.4-5.3a3 3 0 0 1 4.1 1.1 90 90 0 0 0 10.5 15.6l8.2 12.5a3 3 0 0 1-2.2 4.5c-1 0-2.6.5-4.3 1.6-.7.4-1.7 1.3-3 2.5a3 3 0 0 1-4.5-.5ZM153.7 319l-2.5 1.5a117 117 0 0 0-8.2 6.3l-.6.5-.7.2-.8.1-1-.1-.7-.5-.6-.5-.4-.6-.2-.7c-.2-.6-.3-1.8-.2-3.6.2-3.2.6-9.1.8-18.2 0-6.3.1-13.3.5-16.1a7 7 0 0 1 .5-1.8l.5-.7.6-.6 1.2-.5c.4-.1 1-.2 1.8-.1a55 55 0 0 1 14.7 4.5c10.9 4.8 18.6 7.5 21.5 8.7 1.4.5 2.1 1 2.4 1.3l.6 1 .1.6v.8l-.2.8-.5.7-.6.5-1 .4c-1.2.3-6 3.1-9.1 5.1 21.8 30.8 55.8 69 74 96 3 4.5 5.3 6.6 7.5 6.9 1.9.3 3.3-1 4.9-2.3a164 164 0 0 0 25.1-24.5 32 32 0 0 0 8-18c0-10.1-4-16.3-20.2-33.4a313.2 313.2 0 0 1-24.9-29 29.8 29.8 0 0 1-3.6-4.8c-1 .9-2.8 2.3-4 3.8-2.2 2.7-4.5 5-5.7 5.8l-1.2.6-1 .1-1-.1-1-.6-.6-.7-.5-1c-.7-1.6-1.6-6.5-2-12.3-.6-6.6-1.8-15.6-2.7-20.1a43.5 43.5 0 0 1-.8-10.6l.5-1 .4-.6.7-.5 1-.4h1a36 36 0 0 1 11.6 2.6c5.8 2 14.6 4.8 19.6 6.1 4.4 1.3 7.6 2.7 9.1 4 .7.5 1.2 1.1 1.5 1.6l.3.9.1 1v1l-.3.8-.4.9-.5.7-.7.6-.8.6-.9.3-1 .2c-1 0-3.4.9-5.5 1.8l-.8.3 23 23c33 33.2 38.9 38.7 39 59.6 0 13-3.8 15.8-7.8 24-1 2-4 5.7-8 10a368 368 0 0 1-30.7 28.6 42.3 42.3 0 0 1-5.8 4l-1.1.1h.2l-.9.4c.5 1 1.3 3 2.2 4.4a43 43 0 0 0 8.4 9.3c4.8-1.3 9.8 3 9.8 9.6 0 3-2.3 7-5.8 10.8-5 5.2-12.3 9.5-17 9.5h-5.6a2.8 2.8 0 0 1-2.7-3.1l.9-6.8c.9-6.4-.5-9-7.2-16.3l-2.5-2.8-12 4.1c-12 4.2-32.8 13.6-48.9 16.5-7.5 1.4-14 1.3-18.5-.9-12.5-6-30-26-42.6-48.7a315.2 315.2 0 0 0-14-23.4c-.9 1-2.3 2.7-3.3 4.2-2 3-3.7 5-5 5.8-.6.4-1.2.6-1.7.8l-1.3.1-1.2-.2-1-.5-.9-.7-.6-.8c-.7-1.2-1.2-3.2-1.4-6a279 279 0 0 0-2.9-17.4c-1-4.8-1.6-9.6-1.8-12.4 0-1.7.1-3 .3-3.5l.6-1 .8-.8 1.2-.5a6 6 0 0 1 1.6-.2c2.3 0 7.4 1.1 17 4.2l19 6.1a7 7 0 0 1 2.3 1.2l.7.7.5.8.3.8.1 1v.8l-.3.8c-.6 1.3-2.5 3-5.7 3.8-.9.2-1.5.4-2 .7-.3.2-.6.2-.7.4 0 .3 0 .5.2.8.3.8.8 1.6 1.5 2.7l3.4 4 9.4 10.8c1.3 1.7 9 11.2 17.3 21 11.8 14.2 16.1 18.4 23.1 22 2.5 1.2 6.8.7 11.8-.5a119.8 119.8 0 0 0 36-16.1l2.2-1.9c.5-.4.9-.8 1-1.4 0-.6-.2-1.3-.6-2.3a33 33 0 0 0-3.1-5.2c-19-27.3-53.8-66.7-72.3-99.7Zm25.2-21.3Zm62.9-.7v-.3.3Zm145.5 514 1.1 3.6 5.5 18-3.5 2.4a82 82 0 0 0-10 9.3l-6.4 7-5.4-3.3a109.3 109.3 0 0 1-20.6-19.2c-1.1-1.4-3.7-5.4-4.4-6.4-.6-1-4.8-8.2-8.4-16.4 10.3 1 29.1 3 52.1 5Zm92.5 67.1c-11.3 11-37.3 20.2-50.4 17.8-4.9-1-5.6-1.7-5.6-5.5 0-1 .2-2 .5-3.2.6-2 1.6-4 2.7-5.4 3-3.7 3-4.2.8-5.1-3.6-1.4-8.4 3.5-10.6 10.8l-1.9 6.2-7.6-.7c-11-1-12.2-2.9-7.6-11.4 2-4 4.3-7 5-7 .8 0 1.4-1.1 1.4-2.4 0-6.3-10.3-.4-15 8.7-2.9 5.5-4.7 5.9-6 1.1-1.8-6.6-1-11.5 2.9-19.3 4.3-8.7 11-14 21.4-17 3.8-1 6.9-2.6 6.8-3.5 0-.8-2.6-9.6-5.7-19.5a328 328 0 0 1-9.1-34.4 357.2 357.2 0 0 0 75.4.2c2.7 9.8 6 20.9 10.1 33.6 5.1 15.6 3.5 45.3-7.5 56Zm168-62.5-7.3 25.8c-.4 1.4 1.2 2.6 4.1 3.3 17.6 3.9 29.7 19 26.9 33.6-1.3 7.1-4 7.2-7.8.3-3.1-5.7-10-9.9-12.4-7.5-.9 1 .4 4 3.4 8.2a28 28 0 0 1 4.9 8.9c0 2.7-6.5 5.2-13.5 5.2-4.7 0-5.4-.5-5.4-3.8 0-4.4-7-13.5-10.3-13.5-2.6 0-3 5.6-.7 7 1.1.8 1.6 4 1.5 6.8 0 2.6-.6 5-1.6 5.4-1 .3-7.3 0-14-.5-22.9-2-42.9-18.4-42.3-40.4.6-24.8 3.9-45.4 7.7-62.3h.1a358.8 358.8 0 0 0 72.8 1 635 635 0 0 1-6 22.5Zm97.7-33a42.7 42.7 0 0 1 23.9 22.8 50 50 0 0 1 3 15.1c1 14.1-3 23.1-12.7 29.4-8.3 5.4-12 5.5-12 .2s-5.5-15.8-9-17c-5.3-2.1-6.2 1.8-2.5 11.8 2 5.3 3 10.3 2.5 11.1-.2.4-.8.7-1.7.9-4.6 1-16.4-.8-18.9-3.3-2.4-2.4-2.3-3 1.3-7 1.8-2 3.5-4.2 5-6.6 3.6-5.7 6-11.7 5.1-14.2-.7-2.4-2.3-3.1-6.8-3.1-5 0-6.5 1-10.8 6.8a50 50 0 0 1-5.5 6c-7 6.5-16.6 12.5-21.2 12.6-3 .1-6.1-1.5-10-5.2a76 76 0 0 0-9.2-7.8c-3.2-2-3.5-2.9-2-5.7 1.1-2 3-8.5 5.2-16.6l66.2-4.6c1.4 0 3-.7 4.4-2.3.9-1 1.9-3 2.7-5.7a135 135 0 0 0 3-17.6Zm-10.1-5.1c-.5 4-1 8.4-1.7 12.3-.4 2.8-1.3 6-1.8 7.9l-60 4.2c3-12.4 5.8-25.7 6.6-32.6 2.5-19.6 0-37.7-5.4-41.3-3-2-7.6-1.4-10.6 1.4-2.5 2.2-3 5-3 19.4 0 11.5-.8 21.3-3.2 33.4a347.2 347.2 0 0 1-72.8-.6c4.9-18.7 9.9-32.4 11.4-42.5 2-13.2-6.9-27.8-16.6-1.4a274.2 274.2 0 0 0-17.4 70.1 997.4 997.4 0 0 1-63.2 0c-4.6-21.8-9.3-44.3-12.8-58.3-10-40.8-21.6-24.2-19-11.6 2 10.6 4.3 23.2 8.6 40a268 268 0 0 1-36 1.9c-19.5 0-38.5-2.4-38.5-2.4h-.2a207 207 0 0 1-2.2-23.1c-1-23.5-1.4-25.8-5.6-27.4-10-3.7-13.8 4-13.8 28 0 15.7 1.6 28.3 6 45.2-26-2.4-45.9-4.6-53.2-5.4l-1-3.5c-4-15.1-3.6-39.9.8-55.8 6-21.8 18.7-45 37.3-68.1 9-11.4 17.7-20.7 19-20.7.7 0 2 .6 3.6 1.5 2.2 1.2 5 3 7.7 5 25.7 19.5 67.8 32.4 114.2 35.2 19 1.2 54.6-1.3 73.1-5a201.5 201.5 0 0 0 72-29.8 103 103 0 0 1 8.5-5.4s2.2-1.5 3.5-1.5c1.2 0 4.5 2.7 7.4 6l15.2 17.2c24.2 27 40 62.7 42.2 94.7l.9 13Zm-235.4 41a910.6 910.6 0 0 0 59.6 0 194 194 0 0 1-10 47.3c-1.7 4.5-11 5.5-19.8 5.7l-7.6-.1c-7.7-.8-10.2-3.7-11.8-9a698 698 0 0 1-10.4-43.9ZM372.3 590.6c-2.7 1.3-5 2.6-7 3.8-8.2 5-20.5 12.7-39 26.2-3.5 2.5-10 2.9-13.3-.8-3.4-3.7-2.4-8.5 3-14.8a68 68 0 0 1 15.4-9.7c27.6-13.7 12.2-13.9-2.3-10.7-8.2 1.9-16.2 4.7-17.7 5.3-4 1.6-6.4 2-9.3-.9-3.8-3.8-3-9.4 1.8-13 0 0 7.1-3.3 11.9-5 6.5-2.5 18.9-6.1 27.9-7.5 6.6-1 13.3-1.4 20-1.2-.7-5.3-1-15.6-1-15.6-.8-28.7 5.3-54 19-79.4a170.6 170.6 0 0 1 36.3-45.9l15.8-15.1-15-18.7a297.3 297.3 0 0 1-49.8-83.8 203.6 203.6 0 0 1-9.8-88c2.7-17.8 7.8-32.7 12.5-36.3a9.2 9.2 0 0 1 8.8-2.1c19 4.1 49.4 31.3 67.4 60.5 9.9 16 18.9 40.6 24 65.2 4 19.7 4 21.5 3.2 57.5-.8 31.7-.6 37.4 1.3 39 3.9 3.3 6.9.7 12-10 3.4-7 8.2-13.4 16-20.9 24.7-24 29-30.4 33.8-50.7 2.8-12 5.3-14.3 11.6-10.9 5.1 2.7 6.8 4.6 10.9 12.5A49.6 49.6 0 0 1 565 342c.5 13 1 15.6 3.6 17 4.4 2.3 8.3-.5 15.5-11 11.1-16.5 21.4-20.3 29.9-11.2 10.5 11.2 6 39.5-8.7 54.2-7.8 7.8-25.4 13.4-41.8 13.4-11.7 0-24.3 5.4-29.6 12.7-5 6.8-6.7 6.6-5.3-.7a39.6 39.6 0 0 1 23.7-28.3c4.9-2.2 6.7-4 6.7-6.4 0-7.7-8.5-9.3-20.2-4a45.4 45.4 0 0 0-24 22.9c-4.6 9.3-5 11-4.1 20.7 1.1 13.5 4.7 21.8 11.9 28.3 7 6.2 10.1 7.4 14.2 5.2 3.2-1.7 4-3.5 5.6-12.8a30 30 0 0 1 6.2-11.8l5.3-6.1 18.2-1c16.4-.9 19.3-1.5 29.6-6.4a63 63 0 0 0 36.7-48.2c.6-3 1-6 1.4-9 1.8-4 3.6-8.7 5.4-13.3 8.7-22.4 24.3-86.1 12.5-91.3-9.1-4-30 37.2-39.2 59.4a30.1 30.1 0 0 0-21.1-2.7c-4.7 1-9 2.5-9.4 3.3-.5.8-1.7 1.5-2.6 1.5-1.9 0-1-9.8 2.6-27a216 216 0 0 1 23.1-56.4c11.8-19 36-43 51.4-50.7 13.8-6.9 17.9-7.2 22.6-1.8 12.9 14.7 16.6 68.6 7.3 105.2-4.7 18.7-20 52.6-33.4 74.2-8.6 13.8-27 38-33.1 43.5-3.2 2.9-3.1 3 15.7 22 35.5 35.8 48.7 66.4 49.7 115.1l.5 21.8v.3c4.5-.2 10.8-.3 16.2-.2 8.5.2 14.7 1.5 19.8 3.3 11.7 4 25.2 9.2 24.2 17.2-.8 7.5-4.3 8.1-19 3.3-27.6-9-32.6-6.8-11.5 5 6.6 3.7 15 9.6 18.5 13 5.7 5.3 6.3 6.6 5.4 11.1-1.8 9.1-8.4 10.1-17.6 2.7a218 218 0 0 0-24.8-16.3l-16.9-10.9-.2.6c-9.7 25.3-40.6 52-72 62.9a241.5 241.5 0 0 1-97 13.8c-26-.8-31.6-1.5-48-5.7-41.4-10.8-64.8-24.5-83.7-49-7.4-9.6-9.3-14.8-13-22.8Zm209-124.4c-4.2 4.5-4.4 7.5-.6 12.2 6 7.3 19.1 2.8 19.1-6.5 0-8.7-12.2-12.4-18.5-5.7Zm-119.8-2.5c-6.5 2.3-8 9.7-3.1 14.6 5.8 5.9 18.8 2 18.8-5.6 0-1.3-1.7-4.1-3.8-6.3-3.8-3.7-7-4.5-11.9-2.7Zm142.2 45.1a23.2 23.2 0 0 0-12.3 30.6c2.4 6 4.3 8 10.4 11 10 5 18.2 3.6 27-4.6 6.2-5.8 7.4-10.8 7.4-16a20 20 0 0 0-6.9-15.9c-8-7.3-16.6-9-25.6-5.1Zm6.7 5.9c6.2-3.5 13.5 3.3 10.6 10.3-1.3 3-2.9 4.6-6.6 5-3 .4-7.3-1.3-8.3-3.8a9 9 0 0 1 4.3-11.5ZM515 542.9c-6.4 1.4-9.5 4.2-9.5 8.7 0 4.5 4.9 9.7 11.2 11.9 5.8 2 5.7 3.5-.8 10-6.8 6.8-14.6 7.3-22.3 1.4-5.2-3.9-5.2-3.9-7-.7-2.2 4.2-1 7.9 4.7 13.2 7.9 7.6 20.7 8 30.1 1 5.6-4 6.3-4 13.4.7 4.5 3.1 7.7 4 14.9 4 8.4 0 9.6-.5 15.3-6 5.1-4.8 6.1-6.6 5.4-10.2-1.2-6.2-3-6.6-8.4-2-9 7.6-24 4-27.3-6.7-1-3-.1-3.9 5.9-6.5 5-2 7.2-4.1 8-7 1.3-5.2-1.3-10.1-5.8-11.1a113 113 0 0 0-27.8-.7Zm-78.4-35.2a28 28 0 0 0-9.8 6.9c-5.6 5.6-6.2 6.9-6.2 14.4 0 12.1 6 19.7 18.3 23.2 5.7 1.6 7.5 1.4 13.8-1.4 12.8-5.6 16.8-21.2 8.9-34.2-4.7-7.8-13.8-11-25-8.9Zm-.5 10.7c1.4-3.1 3-4 7.3-4 4.6 0 5.9.8 7.2 4.2a8.3 8.3 0 0 1-8 11.6c-6 0-9.3-5.8-6.5-11.8Zm7.7-126c6.8 1 2.2-44.6-3.5-65.8-6.1-23.2-31-84-43.6-81.2-10.2 2.2-1.6 53 4.2 74.8 6.2 23.2 36.1 71.3 42.9 72.3Zm-154-187.2c5.2-4 7.8-1 8.5 9.8.5 7.2.9 7.9 4.4 8 10.8.3 11 .5 11 5.3 0 5-3.8 7.1-11.2 6-3.4-.4-3.7.1-4.2 7.7-.5 9.3-3.1 12.6-8 10-2.4-1.3-3.2-3.6-3.6-9.9l-.5-8.2-5.5.4c-13.2 1.2-14.5-9.2-1.4-10.7l7-.7.4-8c.3-5 1.4-8.5 3-9.7Zm477 7.9c1.8-2.3 5.7-2.6 8.6-.8 1 .7 2 6 2.3 12.6.3 6.7 1.3 12.2 2.4 13.1 1.2 1 5 1.2 9.8.6 8.8-1.2 14.3.9 14.3 5.3 0 4.7-3.4 6.3-15 6.8l-11 .4-.7 12.5c-.6 9.5-1.4 12.8-3.6 14.1-2 1.3-3.5 1.3-5.5 0s-2.9-4.6-3.5-14.1l-.8-12.5-10.2-.7c-10.7-.9-14.2-2.1-14.1-5.2 0-5.1 3-6.6 13.6-6.8l10.7-.1.5-11.6c.2-6.4 1.2-12.5 2.1-13.6ZM40.1 519.8c1.5-2.5 8-2.3 10.1.2 1 1.1 2 7 2.2 13l.4 10.9 10.6-.5c12-.6 17 1.4 17 6.5 0 5.7-3.1 7.4-13.6 7.4-14.8 0-14.7 0-14.7 14.2 0 9-.7 13-2.5 14.7-3.2 3.2-5.2 3.2-8.8-.1-2.4-2.1-2.9-5-2.9-15.7v-13.1H25.7c-13 0-16-1.4-16-7.4 0-5 4.4-6.8 17-6.8h10.9l.8-10.8c.4-5.9 1.2-11.6 1.8-12.5Zm130.4 78c3-5.3 7.9-1.5 10.6 6.6 1.5 4.5.1 7.8 8 6 11.4-2.7 13.3 5 3.4 9.1-6.3 2.6-6.3 2.7-5.4 9.3.9 6-.9 7.2-3 7.6-3.9.7-7-1.4-8-7.2l-1-6.2-6.8 1c-5.4.7-6.9.3-7.7-2-1.1-2.8 3.2-7.5 6.4-7.9 5.4-.7 5-2.6 3.6-7.9l-.3-.6c-1-3-1-5.5.2-7.7Zm372.8-489.5c11.6-3.3 27.8 1 35.6 9.6 13.2 14.6 12.4 32.5-2.2 45.3-6.2 5.5-8.1 6.3-14.6 6.3-6 0-8.4-.9-12.3-4.5a22.7 22.7 0 0 1-5.8-8.8c-1.2-4.6 1.7-11.9 4.7-11.9 2.7 0 5.6 3.4 5.6 6.5 0 6.7 11 4.3 15-3.4 3.2-6.3 1.8-12.7-4-18.6-6.5-6.4-14.2-7.5-22-3.1-6 3.4-6.3 3.4-9.4.6-1.8-1.6-3.2-4.1-3.2-5.7 0-4.3 6.4-10.5 12.6-12.3Zm342.7 234c2.8-.9 9.5-1.6 14.8-1.7a43.3 43.3 0 0 1 38.3 19c10.1 14.8 7.6 36-5.5 46-7.1 5.4-19.2 8.2-25.8 6-4.4-1.6-4.9-1.5-4.9 1.3 0 5.5 6.6 17.2 12.4 22 11 9 29.7 13.4 40.2 9.3 2.3-.8 6-3.4 8-5.8l4-4.2 3.3 3.3c9.4 9.4-9.7 25.6-30.1 25.6a66 66 0 0 1-28.3-8.6c-9-5.7-20-19-23.5-28.5-6.3-16.7-2.7-35.9 7.7-42 6.3-3.7 7.9-3.3 7.9 2 0 8.7 9.5 12.6 16.7 6.7 11.2-9 7.6-23.3-7.5-30.2-10-4.6-18-4-29.8 2-27.3 13.8-34.7 51.3-16.7 85 15 28 41 41.9 75 39.9 18.4-1.1 30-5.7 40.1-16 12-12 15.2-27.5 8.6-41.2a25.6 25.6 0 0 0-20.2-13.1c-6.8 0-14 4.7-15.9 10.1-2.5 7.6-6.5 10.7-11.4 8.9-9.2-3.5-7.7-17.2 3-27.1 19.7-18.3 50.4-11.6 62.7 13.6 5.9 12 6.7 24 2.3 36.8a67.4 67.4 0 0 1-44.5 43.7c-9.6 3.4-14.1 4-30.2 4.1-30.6.2-49.4-7.2-70-27.6-29.5-29.2-37.4-70.5-20.2-105a66.1 66.1 0 0 1 39.5-34.4Zm-38.2 227c4.7-2.7 12-1.8 20.4 2.3a33.5 33.5 0 0 1 17.7 37c-3.8 14.3-13.3 22-27.5 22-16.6 0-26.1-12.2-17.9-22.7 4.5-5.7 8.3-4.7 9.3 2.2.7 4.8 1.4 5.5 5.9 6 10 1 17-12.2 12-22.6-3-6.2-7.2-9.3-15-10.7-3.2-.6-6.2-2.2-6.7-3.5-1.7-4.4-1-8.3 1.8-10Z"/>
</svg>
