<?xml version="1.0" encoding="UTF-8"?>
<svg width="1200pt" height="1200pt" version="1.1" viewBox="0 0 1200 1200" xmlns="http://www.w3.org/2000/svg">
 <path d="m1078 574.74-347.16-354.37c-14.344-14.672-35.859-19.125-54.984-11.391-19.031 7.7812-31.312 26.062-31.312 46.594v148.45c-65.766 3.2344-203.76 35.156-326.21 123.74-126.66 91.641-202.18 221.53-218.26 375.66-1.0312 9.6562 3.6562 19.031 12 24.047 8.3438 4.9688 18.797 4.6875 26.859-0.75 293.39-198.56 450.14-144.56 505.6-122.95v146.63c0 20.016 11.297 37.547 29.531 45.844 6.7969 3.0938 13.922 4.5938 21 4.5938 11.859 0 23.484-4.2656 32.906-12.516l345.61-301.78c15.891-13.828 25.453-33.844 26.297-54.938s-7.1719-41.766-21.891-56.812z"/>
</svg>
