<?xml version="1.0" encoding="UTF-8"?>
<svg width="1200pt" height="1200pt" version="1.1" viewBox="0 0 1200 1200" xmlns="http://www.w3.org/2000/svg">
 <path d="m881.04 229.68h-373.44c-24.508 0-48.012 9.7344-65.34 27.062-17.328 17.328-27.062 40.832-27.062 65.336v90h-96c-24.465-0.0625-47.957 9.5781-65.32 26.809-17.367 17.234-27.191 40.648-27.32 65.113v373.92c0.066406 24.484 9.8203 47.949 27.133 65.266 17.316 17.312 40.781 27.07 65.27 27.133h373.44c24.508 0 48.012-9.7344 65.34-27.062 17.328-17.328 27.062-40.832 27.062-65.336v-90h96c24.465 0.0625 47.957-9.5781 65.32-26.809 17.367-17.234 27.191-40.648 27.32-65.113v-373.92c-0.066406-24.484-9.8203-47.949-27.133-65.266-17.316-17.312-40.781-27.07-65.27-27.133zm-170.16 648c0 4.9023-1.9453 9.6016-5.4102 13.066-3.4688 3.4688-8.168 5.4141-13.07 5.4141h-373.44c-4.8828-0.0625-9.5469-2.0312-13-5.4805-3.4531-3.4531-5.418-8.1172-5.4805-13v-373.68c0-4.9023 1.9453-9.6016 5.4141-13.066 3.4648-3.4648 8.1641-5.4141 13.066-5.4141h373.44c4.9219-0.066406 9.6602 1.8633 13.141 5.3398 3.4805 3.4805 5.4062 8.2188 5.3398 13.141v373.92zm188.64-181.68c0 4.9023-1.9453 9.6016-5.4141 13.066-3.4648 3.4648-8.1641 5.4141-13.066 5.4141h-96v-210.48c0-24.508-9.7344-48.008-27.062-65.336-17.328-17.328-40.832-27.062-65.336-27.062h-203.52v-89.523c0-4.8984 1.9453-9.6016 5.4102-13.066 3.4688-3.4648 8.168-5.4102 13.07-5.4102h373.44c4.8828 0.0625 9.5469 2.0273 13 5.4805 3.4531 3.4531 5.418 8.1172 5.4805 12.996z"/>
</svg>
